SourceSerifPro_1.ufo
<glyph name="plus" format="1">
  <advance width="530"/>
  <unicode hex="002B"/>
  <outline>
    <contour>
      <point x="235" y="77" type="line"/>
      <point x="295" y="77" type="line"/>
      <point x="295" y="578" type="line"/>
      <point x="235" y="578" type="line"/>
    </contour>
    <contour>
      <point x="501" y="302" type="line"/>
      <point x="501" y="358" type="line"/>
      <point x="29" y="358" type="line"/>
      <point x="29" y="302" type="line"/>
    </contour>
  </outline>
</glyph>
<glyph name="comma" format="1">
  <advance width="300"/>
  <unicode hex="002C"/>
  <outline>
    <contour>
      <point x="212" y="25" type="curve" smooth="yes"/>
      <point x="212" y="49"/>
      <point x="208" y="72"/>
      <point x="201" y="97" type="curve"/>
      <point x="176" y="120"/>
      <point x="157" y="126"/>
      <point x="139" y="126" type="curve" smooth="yes"/>
      <point x="99" y="126"/>
      <point x="79" y="98"/>
      <point x="79" y="64" type="curve" smooth="yes"/>
      <point x="79" y="40"/>
      <point x="90" y="14"/>
      <point x="116" y="-7" type="curve" smooth="yes"/>
      <point x="164" y="-45" type="line"/>
      <point x="161" y="-2" type="line"/>
      <point x="144" y="-99"/>
      <point x="84" y="-155"/>
      <point x="5" y="-194" type="curve"/>
      <point x="19" y="-227" type="line"/>
      <point x="115" y="-191"/>
      <point x="212" y="-95"/>
    </contour>
  </outline>
</glyph>
<glyph name="period" format="1">
  <advance width="300"/>
  <unicode hex="002E"/>
  <outline>
    <contour>
      <point x="150" y="-15" type="curve" smooth="yes"/>
      <point x="189" y="-15"/>
      <point x="220" y="17"/>
      <point x="220" y="55" type="curve" smooth="yes"/>
      <point x="220" y="94"/>
      <point x="189" y="126"/>
      <point x="150" y="126" type="curve" smooth="yes"/>
      <point x="111" y="126"/>
      <point x="80" y="94"/>
      <point x="80" y="55" type="curve" smooth="yes"/>
      <point x="80" y="17"/>
      <point x="111" y="-15"/>
    </contour>
  </outline>
</glyph>
<glyph name="D" format="1">
  <advance width="710"/>
  <unicode hex="0044"/>
  <outline>
    <contour>
      <point x="140" y="322" type="line" smooth="yes"/>
      <point x="140" y="205"/>
      <point x="140" y="101"/>
      <point x="137" y="0" type="curve"/>
      <point x="233" y="0" type="line"/>
      <point x="230" y="103"/>
      <point x="230" y="207"/>
      <point x="230" y="322" type="curve" smooth="yes"/>
      <point x="230" y="360" type="line" smooth="yes"/>
      <point x="230" y="465"/>
      <point x="230" y="569"/>
      <point x="233" y="670" type="curve"/>
      <point x="137" y="670" type="line"/>
      <point x="140" y="567"/>
      <point x="140" y="463"/>
      <point x="140" y="360" type="curve" smooth="yes"/>
    </contour>
    <contour>
      <point x="175" y="615" type="line"/>
      <point x="185" y="615" type="line"/>
      <point x="185" y="670" type="line"/>
      <point x="45" y="670" type="line"/>
      <point x="45" y="630" type="line"/>
    </contour>
    <contour>
      <point x="175" y="55" type="line"/>
      <point x="45" y="40" type="line"/>
      <point x="45" y="0" type="line"/>
      <point x="185" y="0" type="line"/>
      <point x="185" y="55" type="line"/>
    </contour>
    <contour>
      <point x="185" y="0" type="line"/>
      <point x="320" y="0" type="line" smooth="yes"/>
      <point x="507" y="0"/>
      <point x="662" y="118"/>
      <point x="662" y="335" type="curve" smooth="yes"/>
      <point x="662" y="552"/>
      <point x="523" y="670"/>
      <point x="340" y="670" type="curve" smooth="yes"/>
      <point x="185" y="670" type="line"/>
      <point x="185" y="624" type="line"/>
      <point x="324" y="624" type="line" smooth="yes"/>
      <point x="464" y="624"/>
      <point x="557" y="523"/>
      <point x="557" y="335" type="curve" smooth="yes"/>
      <point x="557" y="147"/>
      <point x="464" y="46"/>
      <point x="325" y="46" type="curve" smooth="yes"/>
      <point x="185" y="46" type="line"/>
    </contour>
  </outline>
</glyph>
<glyph name="M" format="1">
  <advance width="902"/>
  <unicode hex="004D"/>
  <outline>
    <contour>
      <point x="40" y="670" type="line"/>
      <point x="40" y="630" type="line"/>
      <point x="173" y="614" type="line"/>
      <point x="128" y="656" type="line"/>
      <point x="413" y="0" type="line"/>
      <point x="443" y="0" type="line"/>
      <point x="737" y="670" type="line"/>
      <point x="690" y="670" type="line"/>
      <point x="437" y="102" type="line"/>
      <point x="459" y="102" type="line"/>
      <point x="216" y="670" type="line"/>
    </contour>
    <contour>
      <point x="674" y="310" type="line" smooth="yes"/>
      <point x="674" y="205"/>
      <point x="674" y="101"/>
      <point x="671" y="0" type="curve"/>
      <point x="765" y="0" type="line"/>
      <point x="762" y="103"/>
      <point x="762" y="207"/>
      <point x="762" y="310" type="curve" smooth="yes"/>
      <point x="762" y="360" type="line" smooth="yes"/>
      <point x="762" y="465"/>
      <point x="762" y="569"/>
      <point x="765" y="670" type="curve"/>
      <point x="709" y="670" type="line"/>
      <point x="674" y="589" type="line"/>
    </contour>
    <contour>
      <point x="145" y="55" type="line"/>
      <point x="40" y="40" type="line"/>
      <point x="40" y="0" type="line"/>
      <point x="263" y="0" type="line"/>
      <point x="263" y="40" type="line"/>
      <point x="165" y="55" type="line"/>
    </contour>
    <contour>
      <point x="707" y="55" type="line"/>
      <point x="587" y="40" type="line"/>
      <point x="587" y="0" type="line"/>
      <point x="857" y="0" type="line"/>
      <point x="857" y="40" type="line"/>
      <point x="727" y="55" type="line"/>
    </contour>
    <contour>
      <point x="717" y="615" type="line"/>
      <point x="727" y="615" type="line"/>
      <point x="857" y="630" type="line"/>
      <point x="857" y="670" type="line"/>
      <point x="717" y="670" type="line"/>
    </contour>
    <contour>
      <point x="131" y="670" type="line"/>
      <point x="131" y="0" type="line"/>
      <point x="181" y="0" type="line"/>
      <point x="181" y="670" type="line"/>
    </contour>
  </outline>
</glyph>
<glyph name="V" format="1">
  <advance width="675"/>
  <unicode hex="0056"/>
  <outline>
    <contour>
      <point x="554" y="615" type="line"/>
      <point x="665" y="630" type="line"/>
      <point x="665" y="670" type="line"/>
      <point x="434" y="670" type="line"/>
      <point x="434" y="625" type="line"/>
      <point x="534" y="615" type="line"/>
    </contour>
    <contour>
      <point x="165" y="615" type="line"/>
      <point x="285" y="625" type="line"/>
      <point x="285" y="670" type="line"/>
      <point x="15" y="670" type="line"/>
      <point x="15" y="630" type="line"/>
      <point x="145" y="615" type="line"/>
    </contour>
    <contour>
      <point x="326" y="-10" type="line"/>
      <point x="366" y="-10" type="line"/>
      <point x="595" y="670" type="line"/>
      <point x="541" y="670" type="line"/>
      <point x="349" y="99" type="line"/>
      <point x="370" y="99" type="line"/>
      <point x="170" y="670" type="line"/>
      <point x="74" y="670" type="line"/>
    </contour>
  </outline>
</glyph>
<glyph name="c" format="1">
  <advance width="486"/>
  <unicode hex="0063"/>
  <outline>
    <contour>
      <point x="280" y="445" type="curve" smooth="yes"/>
      <point x="308" y="445"/>
      <point x="342" y="438"/>
      <point x="376" y="420" type="curve"/>
      <point x="330" y="457" type="line"/>
      <point x="355" y="369" type="line" smooth="yes"/>
      <point x="362" y="344"/>
      <point x="375" y="324"/>
      <point x="408" y="324" type="curve" smooth="yes"/>
      <point x="433" y="324"/>
      <point x="448" y="336"/>
      <point x="453" y="361" type="curve"/>
      <point x="440" y="435"/>
      <point x="366" y="490"/>
      <point x="277" y="490" type="curve" smooth="yes"/>
      <point x="158" y="490"/>
      <point x="48" y="393"/>
      <point x="48" y="236" type="curve" smooth="yes"/>
      <point x="48" y="83"/>
      <point x="134" y="-15"/>
      <point x="271" y="-15" type="curve" smooth="yes"/>
      <point x="365" y="-15"/>
      <point x="429" y="31"/>
      <point x="456" y="114" type="curve"/>
      <point x="432" y="126" type="line"/>
      <point x="401" y="76"/>
      <point x="350" y="48"/>
      <point x="292" y="48" type="curve" smooth="yes"/>
      <point x="198" y="48"/>
      <point x="131" y="119"/>
      <point x="131" y="245" type="curve" smooth="yes"/>
      <point x="131" y="373"/>
      <point x="193" y="445"/>
    </contour>
  </outline>
</glyph>
<glyph name="g" format="1">
  <advance width="516"/>
  <unicode hex="0067"/>
  <outline>
    <contour>
      <point x="247" y="-195" type="curve" smooth="yes"/>
      <point x="169" y="-195"/>
      <point x="115" y="-169"/>
      <point x="115" y="-103" type="curve" smooth="yes"/>
      <point x="115" y="-64"/>
      <point x="131" y="-34"/>
      <point x="171" y="5" type="curve"/>
      <point x="166" y="11" type="line"/>
      <point x="66" y="-32"/>
      <point x="34" y="-69"/>
      <point x="34" y="-118" type="curve" smooth="yes"/>
      <point x="34" y="-190"/>
      <point x="100" y="-240"/>
      <point x="244" y="-240" type="curve" smooth="yes"/>
      <point x="406" y="-240"/>
      <point x="488" y="-154"/>
      <point x="488" y="-68" type="curve" smooth="yes"/>
      <point x="488" y="13"/>
      <point x="437" y="60"/>
      <point x="330" y="60" type="curve" smooth="yes"/>
      <point x="228" y="60" type="line" smooth="yes"/>
      <point x="166" y="60"/>
      <point x="147" y="76"/>
      <point x="147" y="114" type="curve" smooth="yes"/>
      <point x="147" y="147"/>
      <point x="161" y="169"/>
      <point x="189" y="197" type="curve"/>
      <point x="173" y="210" type="line"/>
      <point x="102" y="167"/>
      <point x="74" y="129"/>
      <point x="74" y="84" type="curve" smooth="yes"/>
      <point x="74" y="36"/>
      <point x="110" y="-15"/>
      <point x="207" y="-15" type="curve" smooth="yes"/>
      <point x="315" y="-15" type="line" smooth="yes"/>
      <point x="388" y="-15"/>
      <point x="416" y="-47"/>
      <point x="416" y="-92" type="curve" smooth="yes"/>
      <point x="416" y="-149"/>
      <point x="357" y="-195"/>
    </contour>
    <contour>
      <point x="60" y="326" type="curve" smooth="yes"/>
      <point x="60" y="216"/>
      <point x="136" y="162"/>
      <point x="239" y="162" type="curve" smooth="yes"/>
      <point x="340" y="162"/>
      <point x="418" y="220"/>
      <point x="418" y="326" type="curve" smooth="yes"/>
      <point x="418" y="436"/>
      <point x="342" y="490"/>
      <point x="240" y="490" type="curve" smooth="yes"/>
      <point x="138" y="490"/>
      <point x="60" y="432"/>
    </contour>
    <contour>
      <point x="241" y="450" type="curve" smooth="yes"/>
      <point x="304" y="450"/>
      <point x="340" y="400"/>
      <point x="340" y="329" type="curve" smooth="yes"/>
      <point x="340" y="255"/>
      <point x="301" y="202"/>
      <point x="236" y="202" type="curve" smooth="yes"/>
      <point x="174" y="202"/>
      <point x="138" y="252"/>
      <point x="138" y="325" type="curve" smooth="yes"/>
      <point x="138" y="398"/>
      <point x="177" y="450"/>
    </contour>
    <contour>
      <point x="346" y="442" type="line"/>
      <point x="346" y="415" type="line"/>
      <point x="493" y="415" type="line"/>
      <point x="493" y="477" type="line"/>
      <point x="478" y="487" type="line"/>
    </contour>
  </outline>
</glyph>
<glyph name="h" format="1">
  <advance width="600"/>
  <unicode hex="0068"/>
  <outline>
    <contour>
      <point x="369" y="490" type="curve" smooth="yes"/>
      <point x="298" y="490"/>
      <point x="216" y="441"/>
      <point x="169" y="378" type="curve"/>
      <point x="214" y="396" type="line"/>
      <point x="163" y="396" type="line"/>
      <point x="163" y="351" type="line"/>
      <point x="184" y="351" type="line"/>
      <point x="241" y="402"/>
      <point x="282" y="420"/>
      <point x="332" y="420" type="curve" smooth="yes"/>
      <point x="392" y="420"/>
      <point x="416" y="390"/>
      <point x="416" y="297" type="curve" smooth="yes"/>
      <point x="416" y="210" type="line" smooth="yes"/>
      <point x="416" y="146"/>
      <point x="415" y="45"/>
      <point x="413" y="0" type="curve"/>
      <point x="499" y="0" type="line"/>
      <point x="497" y="45"/>
      <point x="496" y="146"/>
      <point x="496" y="210" type="curve" smooth="yes"/>
      <point x="496" y="305" type="line" smooth="yes"/>
      <point x="496" y="437"/>
      <point x="455" y="490"/>
    </contour>
    <contour>
      <point x="449" y="55" type="line"/>
      <point x="339" y="35" type="line"/>
      <point x="339" y="0" type="line"/>
      <point x="569" y="0" type="line"/>
      <point x="569" y="35" type="line"/>
      <point x="469" y="55" type="line"/>
    </contour>
    <contour>
      <point x="160" y="55" type="line"/>
      <point x="140" y="55" type="line"/>
      <point x="30" y="35" type="line"/>
      <point x="30" y="0" type="line"/>
      <point x="260" y="0" type="line"/>
      <point x="260" y="35" type="line"/>
    </contour>
    <contour>
      <point x="108" y="210" type="line" smooth="yes"/>
      <point x="108" y="148"/>
      <point x="107" y="45"/>
      <point x="105" y="0" type="curve"/>
      <point x="191" y="0" type="line"/>
      <point x="189" y="45"/>
      <point x="188" y="148"/>
      <point x="188" y="210" type="curve" smooth="yes"/>
      <point x="188" y="368" type="line"/>
      <point x="185" y="381" type="line"/>
      <point x="185" y="580" type="line"/>
      <point x="189" y="722" type="line"/>
      <point x="175" y="730" type="line"/>
      <point x="25" y="685" type="line"/>
      <point x="25" y="650" type="line"/>
      <point x="108" y="640" type="line"/>
    </contour>
  </outline>
</glyph>
<glyph name="i" format="1">
  <advance width="297"/>
  <unicode hex="0069"/>
  <outline>
    <contour>
      <point x="152" y="600" type="curve" smooth="yes"/>
      <point x="189" y="600"/>
      <point x="218" y="626"/>
      <point x="218" y="663" type="curve" smooth="yes"/>
      <point x="218" y="701"/>
      <point x="189" y="726"/>
      <point x="152" y="726" type="curve" smooth="yes"/>
      <point x="115" y="726"/>
      <point x="86" y="701"/>
      <point x="86" y="663" type="curve" smooth="yes"/>
      <point x="86" y="626"/>
      <point x="115" y="600"/>
    </contour>
    <contour>
      <point x="196" y="0" type="line"/>
      <point x="194" y="45"/>
      <point x="193" y="148"/>
      <point x="193" y="210" type="curve" smooth="yes"/>
      <point x="193" y="345" type="line"/>
      <point x="196" y="480" type="line"/>
      <point x="181" y="490" type="line"/>
      <point x="30" y="430" type="line"/>
      <point x="30" y="395" type="line"/>
      <point x="110" y="386" type="line"/>
      <point x="112" y="346"/>
      <point x="113" y="315"/>
      <point x="113" y="260" type="curve" smooth="yes"/>
      <point x="113" y="210" type="line" smooth="yes"/>
      <point x="113" y="148"/>
      <point x="112" y="45"/>
      <point x="110" y="0" type="curve"/>
    </contour>
    <contour>
      <point x="165" y="55" type="line"/>
      <point x="145" y="55" type="line"/>
      <point x="35" y="35" type="line"/>
      <point x="35" y="0" type="line"/>
      <point x="265" y="0" type="line"/>
      <point x="265" y="35" type="line"/>
    </contour>
  </outline>
</glyph>
<glyph name="n" format="1">
  <advance width="605"/>
  <unicode hex="006E"/>
  <outline>
    <contour>
      <point x="201" y="0" type="line"/>
      <point x="199" y="45"/>
      <point x="198" y="148"/>
      <point x="198" y="210" type="curve" smooth="yes"/>
      <point x="198" y="364" type="line"/>
      <point x="186" y="480" type="line"/>
      <point x="171" y="490" type="line"/>
      <point x="35" y="430" type="line"/>
      <point x="35" y="395" type="line"/>
      <point x="115" y="386" type="line"/>
      <point x="117" y="346"/>
      <point x="118" y="315"/>
      <point x="118" y="260" type="curve" smooth="yes"/>
      <point x="118" y="210" type="line" smooth="yes"/>
      <point x="118" y="148"/>
      <point x="117" y="45"/>
      <point x="115" y="0" type="curve"/>
    </contour>
    <contour>
      <point x="171" y="55" type="line"/>
      <point x="151" y="55" type="line"/>
      <point x="41" y="35" type="line"/>
      <point x="41" y="0" type="line"/>
      <point x="271" y="0" type="line"/>
      <point x="271" y="35" type="line"/>
    </contour>
    <contour>
      <point x="455" y="55" type="line"/>
      <point x="345" y="35" type="line"/>
      <point x="345" y="0" type="line"/>
      <point x="575" y="0" type="line"/>
      <point x="575" y="35" type="line"/>
      <point x="475" y="55" type="line"/>
    </contour>
    <contour>
      <point x="375" y="490" type="curve" smooth="yes"/>
      <point x="304" y="490"/>
      <point x="224" y="441"/>
      <point x="177" y="378" type="curve"/>
      <point x="220" y="396" type="line"/>
      <point x="169" y="396" type="line"/>
      <point x="169" y="351" type="line"/>
      <point x="190" y="351" type="line"/>
      <point x="247" y="400"/>
      <point x="288" y="420"/>
      <point x="338" y="420" type="curve" smooth="yes"/>
      <point x="398" y="420"/>
      <point x="422" y="390"/>
      <point x="422" y="297" type="curve" smooth="yes"/>
      <point x="422" y="210" type="line" smooth="yes"/>
      <point x="422" y="146"/>
      <point x="421" y="45"/>
      <point x="419" y="0" type="curve"/>
      <point x="505" y="0" type="line"/>
      <point x="503" y="45"/>
      <point x="502" y="146"/>
      <point x="502" y="210" type="curve" smooth="yes"/>
      <point x="502" y="305" type="line" smooth="yes"/>
      <point x="502" y="437"/>
      <point x="461" y="490"/>
    </contour>
  </outline>
</glyph>
<glyph name="r" format="1">
  <advance width="420"/>
  <unicode hex="0072"/>
  <outline>
    <contour>
      <point x="317" y="440" type="curve"/>
      <point x="268" y="440" type="line"/>
      <point x="295" y="414" type="line" smooth="yes"/>
      <point x="312" y="398"/>
      <point x="330" y="390"/>
      <point x="350" y="390" type="curve" smooth="yes"/>
      <point x="383" y="390"/>
      <point x="409" y="410"/>
      <point x="409" y="443" type="curve"/>
      <point x="404" y="476"/>
      <point x="371" y="490"/>
      <point x="342" y="490" type="curve" smooth="yes"/>
      <point x="283" y="490"/>
      <point x="222" y="434"/>
      <point x="190" y="341" type="curve"/>
      <point x="215" y="348" type="line"/>
      <point x="158" y="348" type="line"/>
      <point x="158" y="281" type="line"/>
      <point x="196" y="281" type="line"/>
      <point x="219" y="358"/>
      <point x="255" y="408"/>
    </contour>
    <contour>
      <point x="173" y="55" type="line"/>
      <point x="153" y="55" type="line"/>
      <point x="43" y="35" type="line"/>
      <point x="43" y="0" type="line"/>
      <point x="283" y="0" type="line"/>
      <point x="283" y="35" type="line"/>
    </contour>
    <contour>
      <point x="201" y="0" type="line"/>
      <point x="199" y="45"/>
      <point x="198" y="148"/>
      <point x="198" y="210" type="curve" smooth="yes"/>
      <point x="198" y="355" type="line"/>
      <point x="186" y="480" type="line"/>
      <point x="171" y="490" type="line"/>
      <point x="35" y="430" type="line"/>
      <point x="35" y="395" type="line"/>
      <point x="115" y="386" type="line"/>
      <point x="117" y="346"/>
      <point x="118" y="315"/>
      <point x="118" y="260" type="curve" smooth="yes"/>
      <point x="118" y="210" type="line" smooth="yes"/>
      <point x="118" y="148"/>
      <point x="117" y="45"/>
      <point x="115" y="0" type="curve"/>
    </contour>
  </outline>
</glyph>
<glyph name="s" format="1">
  <advance width="433"/>
  <unicode hex="0073"/>
  <outline>
    <contour>
      <point x="200" y="-15" type="curve" smooth="yes"/>
      <point x="328" y="-15"/>
      <point x="392" y="54"/>
      <point x="392" y="128" type="curve" smooth="yes"/>
      <point x="392" y="190"/>
      <point x="355" y="238"/>
      <point x="255" y="275" type="curve" smooth="yes"/>
      <point x="225" y="286" type="line" smooth="yes"/>
      <point x="157" y="311"/>
      <point x="132" y="330"/>
      <point x="132" y="371" type="curve" smooth="yes"/>
      <point x="132" y="417"/>
      <point x="164" y="445"/>
      <point x="226" y="445" type="curve" smooth="yes"/>
      <point x="262" y="445"/>
      <point x="296" y="432"/>
      <point x="328" y="407" type="curve"/>
      <point x="292" y="449" type="line"/>
      <point x="312" y="348" type="line"/>
      <point x="362" y="348" type="line"/>
      <point x="366" y="449" type="line"/>
      <point x="323" y="475"/>
      <point x="281" y="490"/>
      <point x="227" y="490" type="curve" smooth="yes"/>
      <point x="123" y="490"/>
      <point x="55" y="422"/>
      <point x="55" y="346" type="curve" smooth="yes"/>
      <point x="55" y="282"/>
      <point x="103" y="241"/>
      <point x="176" y="214" type="curve" smooth="yes"/>
      <point x="222" y="197" type="line" smooth="yes"/>
      <point x="285" y="174"/>
      <point x="316" y="151"/>
      <point x="316" y="108" type="curve" smooth="yes"/>
      <point x="316" y="62"/>
      <point x="279" y="30"/>
      <point x="202" y="30" type="curve" smooth="yes"/>
      <point x="152" y="30"/>
      <point x="114" y="44"/>
      <point x="79" y="71" type="curve"/>
      <point x="128" y="14" type="line"/>
      <point x="101" y="132" type="line"/>
      <point x="48" y="132" type="line"/>
      <point x="52" y="23" type="line"/>
      <point x="101" y="-2"/>
      <point x="144" y="-15"/>
    </contour>
  </outline>
</glyph>
<glyph name="u" format="1">
  <advance width="582"/>
  <unicode hex="0075"/>
  <outline>
    <contour>
      <point x="547" y="0" type="line"/>
      <point x="547" y="35" type="line"/>
      <point x="454" y="55" type="line"/>
      <point x="478" y="31" type="line"/>
      <point x="478" y="330" type="line"/>
      <point x="481" y="470" type="line"/>
      <point x="471" y="480" type="line"/>
      <point x="329" y="467" type="line"/>
      <point x="329" y="432" type="line"/>
      <point x="422" y="412" type="line"/>
      <point x="401" y="431" type="line"/>
      <point x="398" y="107" type="line"/>
      <point x="412" y="-10" type="line"/>
    </contour>
    <contour>
      <point x="174" y="330" type="line"/>
      <point x="179" y="470" type="line"/>
      <point x="169" y="480" type="line"/>
      <point x="25" y="467" type="line"/>
      <point x="25" y="432" type="line"/>
      <point x="118" y="412" type="line"/>
      <point x="97" y="431" type="line"/>
      <point x="94" y="165" type="line" smooth="yes"/>
      <point x="93" y="33"/>
      <point x="143" y="-15"/>
      <point x="223" y="-15" type="curve" smooth="yes"/>
      <point x="288" y="-15"/>
      <point x="356" y="17"/>
      <point x="413" y="94" type="curve"/>
      <point x="378" y="79" type="line"/>
      <point x="429" y="79" type="line"/>
      <point x="429" y="130" type="line"/>
      <point x="408" y="130" type="line"/>
      <point x="358" y="80"/>
      <point x="306" y="55"/>
      <point x="255" y="55" type="curve" smooth="yes"/>
      <point x="200" y="55"/>
      <point x="174" y="86"/>
      <point x="174" y="175" type="curve" smooth="yes"/>
    </contour>
  </outline>
</glyph>
<glyph name="v" format="1">
  <advance width="504"/>
  <unicode hex="0076"/>
  <outline>
    <contour>
      <point x="424" y="417" type="line"/>
      <point x="494" y="432" type="line"/>
      <point x="494" y="472" type="line"/>
      <point x="304" y="472" type="line"/>
      <point x="304" y="432" type="line"/>
      <point x="404" y="417" type="line"/>
    </contour>
    <contour>
      <point x="35" y="472" type="line"/>
      <point x="237" y="-10" type="line"/>
      <point x="278" y="-10" type="line"/>
      <point x="460" y="472" type="line"/>
      <point x="406" y="472" type="line"/>
      <point x="245" y="11" type="line"/>
      <point x="286" y="63" type="line"/>
      <point x="130" y="472" type="line"/>
    </contour>
    <contour>
      <point x="118" y="417" type="line"/>
      <point x="240" y="432" type="line"/>
      <point x="240" y="472" type="line"/>
      <point x="0" y="472" type="line"/>
      <point x="0" y="432" type="line"/>
      <point x="98" y="417" type="line"/>
    </contour>
  </outline>
</glyph>
<glyph name="x" format="1">
  <advance width="504"/>
  <unicode hex="0078"/>
  <outline>
    <contour>
      <point x="43" y="472" type="line"/>
      <point x="216" y="224" type="line"/>
      <point x="364" y="0" type="line"/>
      <point x="461" y="0" type="line"/>
      <point x="275" y="265" type="line"/>
      <point x="136" y="472" type="line"/>
    </contour>
    <contour>
      <point x="94" y="52" type="line"/>
      <point x="10" y="35" type="line"/>
      <point x="10" y="0" type="line"/>
      <point x="203" y="0" type="line"/>
      <point x="203" y="35" type="line"/>
      <point x="114" y="52" type="line"/>
    </contour>
    <contour>
      <point x="136" y="417" type="line"/>
      <point x="226" y="432" type="line"/>
      <point x="226" y="472" type="line"/>
      <point x="15" y="472" type="line"/>
      <point x="15" y="432" type="line"/>
      <point x="116" y="417" type="line"/>
    </contour>
    <contour>
      <point x="367" y="55" type="line"/>
      <point x="262" y="35" type="line"/>
      <point x="262" y="0" type="line"/>
      <point x="494" y="0" type="line"/>
      <point x="494" y="35" type="line"/>
      <point x="387" y="55" type="line"/>
    </contour>
    <contour>
      <point x="401" y="418" type="line"/>
      <point x="478" y="432" type="line"/>
      <point x="478" y="472" type="line"/>
      <point x="299" y="472" type="line"/>
      <point x="299" y="432" type="line"/>
      <point x="381" y="418" type="line"/>
    </contour>
    <contour>
      <point x="94" y="0" type="line"/>
      <point x="267" y="236" type="line"/>
      <point x="235" y="259" type="line"/>
      <point x="36" y="0" type="line"/>
    </contour>
    <contour>
      <point x="403" y="472" type="line"/>
      <point x="234" y="245" type="line"/>
      <point x="265" y="219" type="line"/>
      <point x="463" y="472" type="line"/>
    </contour>
  </outline>
</glyph>
<glyph name="y" format="1">
  <advance width="506"/>
  <unicode hex="0079"/>
  <outline>
    <contour>
      <point x="426" y="417" type="line"/>
      <point x="496" y="432" type="line"/>
      <point x="496" y="472" type="line"/>
      <point x="300" y="472" type="line"/>
      <point x="300" y="432" type="line"/>
      <point x="406" y="417" type="line"/>
    </contour>
    <contour>
      <point x="117" y="417" type="line"/>
      <point x="237" y="431" type="line"/>
      <point x="237" y="472" type="line"/>
      <point x="-1" y="472" type="line"/>
      <point x="-1" y="432" type="line"/>
      <point x="97" y="417" type="line"/>
    </contour>
    <contour>
      <point x="287" y="48" type="line"/>
      <point x="130" y="472" type="line"/>
      <point x="37" y="472" type="line"/>
      <point x="246" y="-52" type="line"/>
    </contour>
    <contour>
      <point x="86" y="-250" type="curve" smooth="yes"/>
      <point x="168" y="-250"/>
      <point x="227" y="-175"/>
      <point x="292" y="6" type="curve" smooth="yes"/>
      <point x="460" y="472" type="line" smooth="yes"/>
      <point x="406" y="472" type="line"/>
      <point x="231" y="-40" type="line" smooth="yes"/>
      <point x="207" y="-110"/>
      <point x="166" y="-177"/>
      <point x="99" y="-210" type="curve"/>
      <point x="126" y="-232" type="line"/>
      <point x="165" y="-210" type="line"/>
      <point x="134" y="-179" type="line" smooth="yes"/>
      <point x="107" y="-152"/>
      <point x="87" y="-142"/>
      <point x="61" y="-142" type="curve" smooth="yes"/>
      <point x="31" y="-142"/>
      <point x="2" y="-156"/>
      <point x="-5" y="-184" type="curve"/>
      <point x="-5" y="-223"/>
      <point x="37" y="-250"/>
    </contour>
  </outline>
</glyph>
<glyph name="yen" format="1">
  <advance width="497"/>
  <unicode hex="00A5"/>
  <outline>
    <contour>
      <point x="50" y="151" type="line"/>
      <point x="455" y="151" type="line"/>
      <point x="455" y="201" type="line"/>
      <point x="50" y="201" type="line"/>
    </contour>
    <contour>
      <point x="50" y="268" type="line"/>
      <point x="455" y="268" type="line"/>
      <point x="455" y="318" type="line"/>
      <point x="50" y="318" type="line"/>
    </contour>
    <contour>
      <point x="240" y="53" type="line"/>
      <point x="105" y="39" type="line"/>
      <point x="105" y="0" type="line"/>
      <point x="394" y="0" type="line"/>
      <point x="394" y="39" type="line"/>
      <point x="259" y="53" type="line"/>
    </contour>
    <contour>
      <point x="104" y="592" type="line"/>
      <point x="113" y="592" type="line"/>
      <point x="229" y="607" type="line"/>
      <point x="229" y="645" type="line"/>
      <point x="-11" y="645" type="line"/>
      <point x="-11" y="607" type="line"/>
    </contour>
    <contour>
      <point x="418" y="592" type="line"/>
      <point x="422" y="592" type="line"/>
      <point x="509" y="607" type="line"/>
      <point x="509" y="645" type="line"/>
      <point x="317" y="645" type="line"/>
      <point x="317" y="607" type="line"/>
    </contour>
    <contour>
      <point x="209" y="190" type="line" smooth="yes"/>
      <point x="209" y="126"/>
      <point x="207" y="68"/>
      <point x="206" y="0" type="curve"/>
      <point x="292" y="0" type="line"/>
      <point x="290" y="70"/>
      <point x="289" y="127"/>
      <point x="289" y="190" type="curve" smooth="yes"/>
      <point x="289" y="309" type="line"/>
      <point x="209" y="309" type="line"/>
    </contour>
    <contour>
      <point x="274" y="237" type="line"/>
      <point x="461" y="645" type="line"/>
      <point x="412" y="645" type="line"/>
      <point x="266" y="320" type="line"/>
      <point x="274" y="320" type="line"/>
      <point x="133" y="645" type="line"/>
      <point x="33" y="645" type="line"/>
      <point x="225" y="237" type="line"/>
    </contour>
  </outline>
</glyph>
<glyph name="Eth" format="1">
  <advance width="710"/>
  <unicode hex="00D0"/>
  <outline>
    <contour>
      <point x="385" y="320" type="line"/>
      <point x="385" y="366" type="line"/>
      <point x="45" y="366" type="line"/>
      <point x="45" y="320" type="line"/>
    </contour>
    <component base="D"/>
  </outline>
</glyph>
<glyph name="ae" format="1">
  <advance width="782"/>
  <unicode hex="00E6"/>
  <outline>
    <contour>
      <point x="131" y="126" type="curve" smooth="yes"/>
      <point x="131" y="155"/>
      <point x="141" y="194"/>
      <point x="231" y="229" type="curve" smooth="yes"/>
      <point x="261" y="241"/>
      <point x="318" y="260"/>
      <point x="363" y="269" type="curve"/>
      <point x="363" y="305" type="line"/>
      <point x="313" y="296"/>
      <point x="252" y="278"/>
      <point x="210" y="263" type="curve" smooth="yes"/>
      <point x="76" y="214"/>
      <point x="46" y="168"/>
      <point x="46" y="112" type="curve" smooth="yes"/>
      <point x="46" y="29"/>
      <point x="107" y="-15"/>
      <point x="180" y="-15" type="curve" smooth="yes"/>
      <point x="241" y="-15"/>
      <point x="278" y="6"/>
      <point x="370" y="94" type="curve"/>
      <point x="351" y="119" type="line"/>
      <point x="275" y="62"/>
      <point x="253" y="50"/>
      <point x="212" y="50" type="curve" smooth="yes"/>
      <point x="188" y="50"/>
      <point x="167" y="57"/>
      <point x="151" y="73" type="curve" smooth="yes"/>
      <point x="139" y="85"/>
      <point x="131" y="100"/>
    </contour>
    <contour>
      <point x="542" y="-15" type="curve" smooth="yes"/>
      <point x="633" y="-15"/>
      <point x="697" y="30"/>
      <point x="733" y="101" type="curve"/>
      <point x="710" y="119" type="line"/>
      <point x="674" y="77"/>
      <point x="634" y="48"/>
      <point x="570" y="48" type="curve" smooth="yes"/>
      <point x="470" y="48"/>
      <point x="406" y="121"/>
      <point x="406" y="244" type="curve" smooth="yes"/>
      <point x="406" y="391"/>
      <point x="480" y="445"/>
      <point x="543" y="445" type="curve" smooth="yes"/>
      <point x="607" y="445"/>
      <point x="655" y="393"/>
      <point x="655" y="336" type="curve" smooth="yes"/>
      <point x="655" y="307"/>
      <point x="643" y="285"/>
      <point x="596" y="285" type="curve" smooth="yes"/>
      <point x="363" y="285" type="line"/>
      <point x="363" y="243" type="line"/>
      <point x="727" y="243" type="line"/>
      <point x="731" y="256"/>
      <point x="734" y="276"/>
      <point x="734" y="298" type="curve" smooth="yes"/>
      <point x="734" y="420"/>
      <point x="652" y="490"/>
      <point x="548" y="490" type="curve" smooth="yes"/>
      <point x="476" y="490"/>
      <point x="412" y="450"/>
      <point x="369" y="387" type="curve"/>
      <point x="358" y="379" type="line"/>
      <point x="335" y="339"/>
      <point x="321" y="290"/>
      <point x="321" y="236" type="curve" smooth="yes"/>
      <point x="321" y="79"/>
      <point x="408" y="-15"/>
    </contour>
    <contour>
      <point x="399" y="335" type="line" smooth="yes"/>
      <point x="399" y="446"/>
      <point x="336" y="490"/>
      <point x="252" y="490" type="curve" smooth="yes"/>
      <point x="152" y="490"/>
      <point x="78" y="441"/>
      <point x="59" y="365" type="curve"/>
      <point x="61" y="340"/>
      <point x="77" y="323"/>
      <point x="104" y="323" type="curve" smooth="yes"/>
      <point x="131" y="323"/>
      <point x="148" y="339"/>
      <point x="157" y="368" type="curve" smooth="yes"/>
      <point x="183" y="456" type="line"/>
      <point x="141" y="427" type="line"/>
      <point x="178" y="442"/>
      <point x="209" y="445"/>
      <point x="234" y="445" type="curve" smooth="yes"/>
      <point x="295" y="445"/>
      <point x="325" y="421"/>
      <point x="325" y="323" type="curve" smooth="yes"/>
      <point x="325" y="243" type="line"/>
      <point x="399" y="243" type="line"/>
    </contour>
  </outline>
</glyph>
<glyph name="eth" format="1">
  <advance width="545"/>
  <unicode hex="00F0"/>
  <outline>
    <contour>
      <point x="159" y="525" type="line"/>
      <point x="492" y="696" type="line"/>
      <point x="474" y="732" type="line"/>
      <point x="141" y="561" type="line"/>
    </contour>
    <contour>
      <point x="271" y="427" type="curve" smooth="yes"/>
      <point x="355" y="427"/>
      <point x="407" y="363"/>
      <point x="407" y="231" type="curve" smooth="yes"/>
      <point x="407" y="104"/>
      <point x="363" y="30"/>
      <point x="271" y="30" type="curve" smooth="yes"/>
      <point x="186" y="30"/>
      <point x="136" y="99"/>
      <point x="136" y="227" type="curve" smooth="yes"/>
      <point x="136" y="355"/>
      <point x="182" y="427"/>
    </contour>
    <contour>
      <point x="262" y="-15" type="curve" smooth="yes"/>
      <point x="410" y="-15"/>
      <point x="493" y="98"/>
      <point x="493" y="278" type="curve" smooth="yes"/>
      <point x="493" y="512"/>
      <point x="358" y="662"/>
      <point x="173" y="750" type="curve"/>
      <point x="153" y="718" type="line"/>
      <point x="303" y="621"/>
      <point x="371" y="537"/>
      <point x="409" y="370" type="curve"/>
      <point x="421" y="375" type="line"/>
      <point x="397" y="440"/>
      <point x="339" y="472"/>
      <point x="266" y="472" type="curve" smooth="yes"/>
      <point x="155" y="472"/>
      <point x="46" y="387"/>
      <point x="46" y="232" type="curve" smooth="yes"/>
      <point x="46" y="71"/>
      <point x="151" y="-15"/>
    </contour>
  </outline>
</glyph>
<glyph name="oslash" format="1">
  <advance width="548"/>
  <unicode hex="00F8"/>
  <outline>
    <contour>
      <point x="486" y="475" type="line"/>
      <point x="454" y="500" type="line"/>
      <point x="54" y="5" type="line"/>
      <point x="86" y="-20" type="line"/>
    </contour>
    <component base="o"/>
  </outline>
</glyph>
<glyph name="dcroat" format="1">
  <advance width="565"/>
  <unicode hex="0111"/>
  <outline>
    <contour>
      <point x="204" y="539" type="line"/>
      <point x="550" y="539" type="line"/>
      <point x="550" y="584" type="line"/>
      <point x="204" y="584" type="line"/>
    </contour>
    <contour>
      <point x="131" y="225" type="curve" smooth="yes"/>
      <point x="131" y="355"/>
      <point x="196" y="415"/>
      <point x="273" y="415" type="curve" smooth="yes"/>
      <point x="309" y="415"/>
      <point x="349" y="399"/>
      <point x="407" y="343" type="curve"/>
      <point x="417" y="369" type="line"/>
      <point x="365" y="447"/>
      <point x="319" y="470"/>
      <point x="255" y="470" type="curve" smooth="yes"/>
      <point x="136" y="470"/>
      <point x="46" y="369"/>
      <point x="46" y="223" type="curve" smooth="yes"/>
      <point x="46" y="84"/>
      <point x="128" y="-15"/>
      <point x="250" y="-15" type="curve" smooth="yes"/>
      <point x="319" y="-15"/>
      <point x="370" y="18"/>
      <point x="413" y="95" type="curve"/>
      <point x="404" y="121" type="line"/>
      <point x="358" y="63"/>
      <point x="322" y="40"/>
      <point x="272" y="40" type="curve" smooth="yes"/>
      <point x="191" y="40"/>
      <point x="131" y="99"/>
    </contour>
    <contour>
      <point x="451" y="51" type="line"/>
      <point x="467" y="0" type="line"/>
      <point x="467" y="580" type="line"/>
      <point x="471" y="722" type="line"/>
      <point x="457" y="730" type="line"/>
      <point x="304" y="685" type="line"/>
      <point x="304" y="650" type="line"/>
      <point x="390" y="640" type="line"/>
      <point x="390" y="391" type="line"/>
      <point x="387" y="378" type="line"/>
      <point x="387" y="90" type="line"/>
      <point x="397" y="-10" type="line"/>
      <point x="550" y="0" type="line"/>
      <point x="550" y="35" type="line"/>
    </contour>
  </outline>
</glyph>
<glyph name="Lslash" format="1">
  <advance width="597"/>
  <unicode hex="0141"/>
  <outline>
    <contour>
      <point x="396" y="460" type="line"/>
      <point x="185" y="339" type="line"/>
      <point x="185" y="283" type="line"/>
      <point x="396" y="404" type="line"/>
    </contour>
    <contour>
      <point x="185" y="344" type="line"/>
      <point x="45" y="264" type="line"/>
      <point x="45" y="209" type="line"/>
      <point x="185" y="288" type="line"/>
    </contour>
    <component base="L"/>
  </outline>
</glyph>
<glyph name="gravecmb" format="1">
  <advance width="0"/>
  <unicode hex="0300"/>
  <outline>
    <contour>
      <point x="64" y="576" type="line"/>
      <point x="-25" y="717" type="line" smooth="yes"/>
      <point x="-44" y="747"/>
      <point x="-61" y="757"/>
      <point x="-78" y="757" type="curve" smooth="yes"/>
      <point x="-97" y="757"/>
      <point x="-115" y="745"/>
      <point x="-115" y="720" type="curve" smooth="yes"/>
      <point x="-115" y="707"/>
      <point x="-110" y="691"/>
      <point x="-83" y="667" type="curve" smooth="yes"/>
      <point x="39" y="557" type="line"/>
    </contour>
  </outline>
</glyph>
<glyph name="circumflexcmb" format="1">
  <advance width="0"/>
  <unicode hex="0302"/>
  <outline>
    <contour>
      <point x="125" y="556" type="line"/>
      <point x="148" y="577" type="line"/>
      <point x="16" y="753" type="line"/>
      <point x="-16" y="753" type="line"/>
      <point x="-148" y="577" type="line"/>
      <point x="-125" y="556" type="line"/>
      <point x="42" y="699" type="line"/>
      <point x="-42" y="699" type="line"/>
    </contour>
  </outline>
</glyph>
<glyph name="tildecmb" format="1">
  <advance width="0"/>
  <unicode hex="0303"/>
  <outline>
    <contour>
      <point x="70" y="574" type="curve" smooth="yes"/>
      <point x="122" y="574"/>
      <point x="165" y="615"/>
      <point x="165" y="684" type="curve" smooth="yes"/>
      <point x="165" y="694"/>
      <point x="164" y="700"/>
      <point x="163" y="706" type="curve"/>
      <point x="130" y="706" type="line"/>
      <point x="130" y="656"/>
      <point x="108" y="635"/>
      <point x="82" y="635" type="curve" smooth="yes"/>
      <point x="61" y="635"/>
      <point x="43" y="648"/>
      <point x="16" y="675" type="curve" smooth="yes"/>
      <point x="-13" y="702"/>
      <point x="-39" y="717"/>
      <point x="-70" y="717" type="curve" smooth="yes"/>
      <point x="-122" y="717"/>
      <point x="-165" y="676"/>
      <point x="-165" y="607" type="curve" smooth="yes"/>
      <point x="-165" y="600"/>
      <point x="-164" y="591"/>
      <point x="-163" y="585" type="curve"/>
      <point x="-130" y="585" type="line"/>
      <point x="-130" y="635"/>
      <point x="-109" y="656"/>
      <point x="-81" y="656" type="curve" smooth="yes"/>
      <point x="-60" y="656"/>
      <point x="-44" y="644"/>
      <point x="-16" y="617" type="curve" smooth="yes"/>
      <point x="13" y="589"/>
      <point x="39" y="574"/>
    </contour>
  </outline>
</glyph>
<glyph name="macroncmb" format="1">
  <advance width="0"/>
  <unicode hex="0304"/>
  <outline>
    <contour>
      <point x="-129" y="603" type="line"/>
      <point x="129" y="603" type="line"/>
      <point x="129" y="664" type="line"/>
      <point x="-129" y="664" type="line"/>
    </contour>
  </outline>
</glyph>
<glyph name="brevecmb" format="1">
  <advance width="0"/>
  <unicode hex="0306"/>
  <outline>
    <contour>
      <point x="0" y="575" type="curve" smooth="yes"/>
      <point x="91" y="575"/>
      <point x="141" y="646"/>
      <point x="150" y="723" type="curve"/>
      <point x="121" y="734" type="line"/>
      <point x="102" y="684"/>
      <point x="62" y="644"/>
      <point x="0" y="644" type="curve" smooth="yes"/>
      <point x="-62" y="644"/>
      <point x="-102" y="684"/>
      <point x="-121" y="734" type="curve"/>
      <point x="-150" y="723" type="line"/>
      <point x="-141" y="646"/>
      <point x="-91" y="575"/>
    </contour>
  </outline>
</glyph>
<glyph name="dotaccentcmb" format="1">
  <advance width="0"/>
  <unicode hex="0307"/>
  <outline>
    <contour>
      <point x="0" y="600" type="curve" smooth="yes"/>
      <point x="37" y="600"/>
      <point x="66" y="626"/>
      <point x="66" y="663" type="curve" smooth="yes"/>
      <point x="66" y="700"/>
      <point x="37" y="726"/>
      <point x="0" y="726" type="curve" smooth="yes"/>
      <point x="-37" y="726"/>
      <point x="-66" y="700"/>
      <point x="-66" y="663" type="curve" smooth="yes"/>
      <point x="-66" y="626"/>
      <point x="-37" y="600"/>
    </contour>
  </outline>
</glyph>
<glyph name="hungarumlautcmb" format="1">
  <advance width="0"/>
  <unicode hex="030B"/>
  <outline>
    <contour>
      <point x="-122" y="567" type="line"/>
      <point x="-95" y="551" type="line"/>
      <point x="-2" y="668" type="line" smooth="yes"/>
      <point x="17" y="692"/>
      <point x="20" y="708"/>
      <point x="20" y="718" type="curve" smooth="yes"/>
      <point x="20" y="740"/>
      <point x="4" y="754"/>
      <point x="-15" y="754" type="curve" smooth="yes"/>
      <point x="-32" y="754"/>
      <point x="-54" y="743"/>
      <point x="-67" y="709" type="curve" smooth="yes"/>
    </contour>
    <contour>
      <point x="20" y="567" type="line"/>
      <point x="47" y="551" type="line"/>
      <point x="140" y="668" type="line" smooth="yes"/>
      <point x="159" y="692"/>
      <point x="162" y="708"/>
      <point x="162" y="718" type="curve" smooth="yes"/>
      <point x="162" y="740"/>
      <point x="146" y="754"/>
      <point x="127" y="754" type="curve" smooth="yes"/>
      <point x="110" y="754"/>
      <point x="88" y="743"/>
      <point x="75" y="709" type="curve" smooth="yes"/>
    </contour>
  </outline>
</glyph>
<glyph name="endash" format="1">
  <advance width="510"/>
  <unicode hex="2013"/>
  <outline>
    <contour>
      <point x="40" y="219" type="line"/>
      <point x="470" y="219" type="line"/>
      <point x="470" y="283" type="line"/>
      <point x="40" y="283" type="line"/>
    </contour>
  </outline>
</glyph>
<glyph name="zero.sups" format="1">
  <advance width="370"/>
  <unicode hex="2070"/>
  <outline>
    <contour>
      <point x="117" y="624" type="curve" smooth="yes"/>
      <point x="117" y="768"/>
      <point x="151" y="795"/>
      <point x="186" y="795" type="curve" smooth="yes"/>
      <point x="221" y="795"/>
      <point x="253" y="767"/>
      <point x="253" y="624" type="curve" smooth="yes"/>
      <point x="253" y="481"/>
      <point x="221" y="453"/>
      <point x="186" y="453" type="curve" smooth="yes"/>
      <point x="151" y="453"/>
      <point x="117" y="481"/>
    </contour>
    <contour>
      <point x="186" y="829" type="curve" smooth="yes"/>
      <point x="115" y="829"/>
      <point x="46" y="770"/>
      <point x="46" y="624" type="curve" smooth="yes"/>
      <point x="46" y="479"/>
      <point x="115" y="420"/>
      <point x="186" y="420" type="curve" smooth="yes"/>
      <point x="256" y="420"/>
      <point x="324" y="479"/>
      <point x="324" y="624" type="curve" smooth="yes"/>
      <point x="324" y="770"/>
      <point x="256" y="829"/>
    </contour>
  </outline>
</glyph>
<glyph name="liraturkish" format="1">
  <advance width="497"/>
  <unicode hex="20BA"/>
  <outline>
    <contour>
      <point x="338" y="543" type="line"/>
      <point x="157" y="440" type="line"/>
      <point x="157" y="383" type="line"/>
      <point x="338" y="486" type="line"/>
    </contour>
    <contour>
      <point x="157" y="445" type="line"/>
      <point x="26" y="370" type="line"/>
      <point x="26" y="314" type="line"/>
      <point x="157" y="388" type="line"/>
    </contour>
    <contour>
      <point x="338" y="417" type="line"/>
      <point x="157" y="314" type="line"/>
      <point x="157" y="257" type="line"/>
      <point x="338" y="360" type="line"/>
    </contour>
    <contour>
      <point x="157" y="319" type="line"/>
      <point x="26" y="244" type="line"/>
      <point x="26" y="188" type="line"/>
      <point x="157" y="262" type="line"/>
    </contour>
    <contour>
      <point x="147" y="592" type="line"/>
      <point x="166" y="592" type="line"/>
      <point x="288" y="606" type="line"/>
      <point x="288" y="645" type="line"/>
      <point x="26" y="645" type="line"/>
      <point x="26" y="606" type="line"/>
    </contour>
    <contour>
      <point x="213" y="-15" type="curve" smooth="yes"/>
      <point x="354" y="-15"/>
      <point x="474" y="66"/>
      <point x="474" y="210" type="curve"/>
      <point x="467" y="229"/>
      <point x="453" y="238"/>
      <point x="432" y="238" type="curve" smooth="yes"/>
      <point x="407" y="238"/>
      <point x="381" y="226"/>
      <point x="381" y="176" type="curve" smooth="yes"/>
      <point x="381" y="166"/>
      <point x="382" y="156"/>
      <point x="384" y="137" type="curve" smooth="yes"/>
      <point x="390" y="71" type="line"/>
      <point x="412" y="80" type="line"/>
      <point x="421" y="131" type="line"/>
      <point x="374" y="69"/>
      <point x="309" y="30"/>
      <point x="226" y="30" type="curve" smooth="yes"/>
      <point x="203" y="30"/>
      <point x="179" y="33"/>
      <point x="159" y="37" type="curve"/>
      <point x="197" y="16" type="line"/>
      <point x="197" y="434" type="line" smooth="yes"/>
      <point x="197" y="504"/>
      <point x="198" y="575"/>
      <point x="200" y="645" type="curve"/>
      <point x="114" y="645" type="line"/>
      <point x="116" y="575"/>
      <point x="117" y="504"/>
      <point x="117" y="414" type="curve" smooth="yes"/>
      <point x="117" y="251" type="line" smooth="yes"/>
      <point x="117" y="141"/>
      <point x="116" y="70"/>
      <point x="114" y="0" type="curve"/>
      <point x="146" y="-12"/>
      <point x="181" y="-15"/>
    </contour>
  </outline>
</glyph>
<glyph name="eight.lf" format="1">
  <advance width="508"/>
  <outline>
    <contour>
      <point x="50" y="148" type="curve" smooth="yes"/>
      <point x="50" y="40"/>
      <point x="137" y="-15"/>
      <point x="256" y="-15" type="curve" smooth="yes"/>
      <point x="369" y="-15"/>
      <point x="458" y="55"/>
      <point x="458" y="155" type="curve" smooth="yes"/>
      <point x="458" y="250"/>
      <point x="403" y="303"/>
      <point x="291" y="355" type="curve" smooth="yes"/>
      <point x="176" y="408"/>
      <point x="148" y="459"/>
      <point x="148" y="514" type="curve" smooth="yes"/>
      <point x="148" y="576"/>
      <point x="198" y="615"/>
      <point x="255" y="615" type="curve" smooth="yes"/>
      <point x="319" y="615"/>
      <point x="355" y="564"/>
      <point x="355" y="503" type="curve" smooth="yes"/>
      <point x="355" y="440"/>
      <point x="328" y="400"/>
      <point x="246" y="345" type="curve"/>
      <point x="284" y="331" type="line"/>
      <point x="396" y="389"/>
      <point x="427" y="455"/>
      <point x="427" y="505" type="curve" smooth="yes"/>
      <point x="427" y="596"/>
      <point x="360" y="660"/>
      <point x="257" y="660" type="curve" smooth="yes"/>
      <point x="155" y="660"/>
      <point x="72" y="598"/>
      <point x="72" y="494" type="curve" smooth="yes"/>
      <point x="72" y="417"/>
      <point x="116" y="353"/>
      <point x="222" y="303" type="curve" smooth="yes"/>
      <point x="340" y="247"/>
      <point x="377" y="209"/>
      <point x="377" y="150" type="curve" smooth="yes"/>
      <point x="377" y="82"/>
      <point x="329" y="29"/>
      <point x="258" y="29" type="curve" smooth="yes"/>
      <point x="183" y="29"/>
      <point x="130" y="82"/>
      <point x="130" y="154" type="curve" smooth="yes"/>
      <point x="130" y="229"/>
      <point x="171" y="268"/>
      <point x="251" y="313" type="curve"/>
      <point x="208" y="327" type="line"/>
      <point x="105" y="278"/>
      <point x="50" y="225"/>
    </contour>
  </outline>
</glyph>
<glyph name="gravecmb.cap" format="1">
  <advance width="0"/>
  <outline>
    <contour>
      <point x="76" y="746" type="line"/>
      <point x="-17" y="839" type="line" smooth="yes"/>
      <point x="-45" y="867"/>
      <point x="-62" y="877"/>
      <point x="-79" y="877" type="curve" smooth="yes"/>
      <point x="-99" y="877"/>
      <point x="-116" y="864"/>
      <point x="-116" y="844" type="curve" smooth="yes"/>
      <point x="-116" y="826"/>
      <point x="-103" y="809"/>
      <point x="-66" y="789" type="curve" smooth="yes"/>
      <point x="58" y="722" type="line"/>
    </contour>
  </outline>
</glyph>
<glyph name="hungarumlautcmb.cap" format="1">
  <advance width="0"/>
  <outline>
    <contour>
      <point x="-113" y="730" type="line"/>
      <point x="-88" y="712" type="line"/>
      <point x="8" y="810" type="line" smooth="yes"/>
      <point x="24" y="827"/>
      <point x="30" y="842"/>
      <point x="30" y="854" type="curve" smooth="yes"/>
      <point x="30" y="874"/>
      <point x="14" y="887"/>
      <point x="-5" y="887" type="curve" smooth="yes"/>
      <point x="-21" y="887"/>
      <point x="-42" y="877"/>
      <point x="-57" y="846" type="curve" smooth="yes"/>
    </contour>
    <contour>
      <point x="39" y="730" type="line"/>
      <point x="64" y="712" type="line"/>
      <point x="160" y="810" type="line" smooth="yes"/>
      <point x="176" y="827"/>
      <point x="182" y="842"/>
      <point x="182" y="854" type="curve" smooth="yes"/>
      <point x="182" y="874"/>
      <point x="166" y="887"/>
      <point x="147" y="887" type="curve" smooth="yes"/>
      <point x="131" y="887"/>
      <point x="110" y="877"/>
      <point x="95" y="846" type="curve" smooth="yes"/>
    </contour>
  </outline>
</glyph>
<glyph name="tildecmb.cap" format="1">
  <advance width="0"/>
  <outline>
    <contour>
      <point x="70" y="724" type="curve" smooth="yes"/>
      <point x="128" y="724"/>
      <point x="163" y="761"/>
      <point x="163" y="824" type="curve" smooth="yes"/>
      <point x="163" y="832"/>
      <point x="162" y="837"/>
      <point x="161" y="843" type="curve"/>
      <point x="128" y="843" type="line"/>
      <point x="128" y="798"/>
      <point x="106" y="779"/>
      <point x="79" y="779" type="curve" smooth="yes"/>
      <point x="58" y="779"/>
      <point x="41" y="790"/>
      <point x="14" y="814" type="curve" smooth="yes"/>
      <point x="-15" y="840"/>
      <point x="-41" y="852"/>
      <point x="-76" y="852" type="curve" smooth="yes"/>
      <point x="-134" y="852"/>
      <point x="-167" y="819"/>
      <point x="-167" y="757" type="curve" smooth="yes"/>
      <point x="-167" y="747"/>
      <point x="-166" y="739"/>
      <point x="-165" y="733" type="curve"/>
      <point x="-132" y="733" type="line"/>
      <point x="-132" y="779"/>
      <point x="-110" y="798"/>
      <point x="-83" y="798" type="curve" smooth="yes"/>
      <point x="-62" y="798"/>
      <point x="-46" y="787"/>
      <point x="-18" y="763" type="curve" smooth="yes"/>
      <point x="11" y="738"/>
      <point x="35" y="724"/>
    </contour>
  </outline>
</glyph>
<glyph name="zero.lf" format="1">
  <advance width="500"/>
  <outline>
    <contour>
      <point x="132" y="322" type="curve" smooth="yes"/>
      <point x="132" y="557"/>
      <point x="189" y="615"/>
      <point x="250" y="615" type="curve" smooth="yes"/>
      <point x="311" y="615"/>
      <point x="368" y="556"/>
      <point x="368" y="322" type="curve" smooth="yes"/>
      <point x="368" y="89"/>
      <point x="311" y="30"/>
      <point x="250" y="30" type="curve" smooth="yes"/>
      <point x="189" y="30"/>
      <point x="132" y="88"/>
    </contour>
    <contour>
      <point x="251" y="660" type="curve" smooth="yes"/>
      <point x="144" y="660"/>
      <point x="40" y="571"/>
      <point x="40" y="322" type="curve" smooth="yes"/>
      <point x="40" y="73"/>
      <point x="144" y="-15"/>
      <point x="251" y="-15" type="curve" smooth="yes"/>
      <point x="357" y="-15"/>
      <point x="460" y="73"/>
      <point x="460" y="322" type="curve" smooth="yes"/>
      <point x="460" y="571"/>
      <point x="357" y="660"/>
    </contour>
  </outline>
</glyph>
